<svg xmlns="http://www.w3.org/2000/svg" xmlns:xlink="http://www.w3.org/1999/xlink" width="793" zoomAndPan="magnify" viewBox="0 0 594.95996 842.24997" height="1122" preserveAspectRatio="xMidYMid meet" version="1.0"><defs><filter x="0%" y="0%" width="100%" height="100%" id="db7e4bee00"><feColorMatrix values="0 0 0 0 1 0 0 0 0 1 0 0 0 0 1 0 0 0 1 0" color-interpolation-filters="sRGB"/></filter><clipPath id="f201918912"><path d="M 0.246094 0 L 594.675781 0 L 594.675781 841.5 L 0.246094 841.5 Z M 0.246094 0 " clip-rule="nonzero"/></clipPath><clipPath id="f54db0a0e0"><path d="M 0.246094 604 L 100 604 L 100 767 L 0.246094 767 Z M 0.246094 604 " clip-rule="nonzero"/></clipPath><mask id="af1641a974"><g filter="url(#db7e4bee00)"><rect x="-59.495996" width="713.951952" fill="#000000" y="-84.224997" height="1010.699964" fill-opacity="0.45"/></g></mask><clipPath id="6367a5c04e"><path d="M 0.246094 127 L 7 127 L 7 162 L 0.246094 162 Z M 0.246094 127 " clip-rule="nonzero"/></clipPath><clipPath id="5c90471353"><path d="M 16 0.261719 L 46 0.261719 L 46 38 L 16 38 Z M 16 0.261719 " clip-rule="nonzero"/></clipPath><clipPath id="c29fd93543"><path d="M 66 50 L 99.496094 50 L 99.496094 83 L 66 83 Z M 66 50 " clip-rule="nonzero"/></clipPath><clipPath id="c3ef7bc0c4"><path d="M 0.246094 30 L 16 30 L 16 64 L 0.246094 64 Z M 0.246094 30 " clip-rule="nonzero"/></clipPath><clipPath id="afcd9418d0"><rect x="0" width="100" y="0" height="163"/></clipPath><clipPath id="333edda2dc"><path d="M 448 0 L 594.675781 0 L 594.675781 241 L 448 241 Z M 448 0 " clip-rule="nonzero"/></clipPath><mask id="8f9d2f9587"><g filter="url(#db7e4bee00)"><rect x="-59.495996" width="713.951952" fill="#000000" y="-84.224997" height="1010.699964" fill-opacity="0.45"/></g></mask><clipPath id="6014201b8a"><path d="M 66 183 L 126 183 L 126 240.757812 L 66 240.757812 Z M 66 183 " clip-rule="nonzero"/></clipPath><clipPath id="377c2780e3"><path d="M 143 83 L 146.675781 83 L 146.675781 140 L 143 140 Z M 143 83 " clip-rule="nonzero"/></clipPath><clipPath id="309d10c291"><path d="M 122 71 L 146.675781 71 L 146.675781 105 L 122 105 Z M 122 71 " clip-rule="nonzero"/></clipPath><clipPath id="259655c9e1"><path d="M 34 0 L 95 0 L 95 50 L 34 50 Z M 34 0 " clip-rule="nonzero"/></clipPath><clipPath id="fcd6f14e28"><path d="M 85 0 L 116 0 L 116 15 L 85 15 Z M 85 0 " clip-rule="nonzero"/></clipPath><clipPath id="1afdd02398"><path d="M 0.40625 1 L 35 1 L 35 32 L 0.40625 32 Z M 0.40625 1 " clip-rule="nonzero"/></clipPath><clipPath id="569ceabbe4"><rect x="0" width="147" y="0" height="241"/></clipPath><clipPath id="779f17c2bb"><path d="M 508 531 L 594.675781 531 L 594.675781 821 L 508 821 Z M 508 531 " clip-rule="nonzero"/></clipPath><mask id="d6e6345c9a"><g filter="url(#db7e4bee00)"><rect x="-59.495996" width="713.951952" fill="#000000" y="-84.224997" height="1010.699964" fill-opacity="0.45"/></g></mask><clipPath id="46807e9feb"><path d="M 66 232 L 86.675781 232 L 86.675781 289.648438 L 66 289.648438 Z M 66 232 " clip-rule="nonzero"/></clipPath><clipPath id="4cdef88699"><path d="M 82 190 L 86.675781 190 L 86.675781 228 L 82 228 Z M 82 190 " clip-rule="nonzero"/></clipPath><clipPath id="53276fe031"><path d="M 34 41 L 86.675781 41 L 86.675781 99 L 34 99 Z M 34 41 " clip-rule="nonzero"/></clipPath><clipPath id="71b9dc8a5c"><path d="M 85 29 L 86.675781 29 L 86.675781 64 L 85 64 Z M 85 29 " clip-rule="nonzero"/></clipPath><clipPath id="64cd93f8fc"><path d="M 0.351562 50 L 35 50 L 35 81 L 0.351562 81 Z M 0.351562 50 " clip-rule="nonzero"/></clipPath><clipPath id="6e2893c9a2"><path d="M 55 0.367188 L 85 0.367188 L 85 36 L 55 36 Z M 55 0.367188 " clip-rule="nonzero"/></clipPath><clipPath id="313b0e72db"><rect x="0" width="87" y="0" height="290"/></clipPath><clipPath id="1c2a268706"><path d="M 0.246094 0 L 138 0 L 138 148 L 0.246094 148 Z M 0.246094 0 " clip-rule="nonzero"/></clipPath><mask id="8bc3858270"><g filter="url(#db7e4bee00)"><rect x="-59.495996" width="713.951952" fill="#000000" y="-84.224997" height="1010.699964" fill-opacity="0.45"/></g></mask><clipPath id="05e58207fb"><path d="M 0.246094 90 L 26 90 L 26 147.730469 L 0.246094 147.730469 Z M 0.246094 90 " clip-rule="nonzero"/></clipPath><clipPath id="fbb96831f4"><path d="M 0.246094 48 L 12 48 L 12 86 L 0.246094 86 Z M 0.246094 48 " clip-rule="nonzero"/></clipPath><clipPath id="673d4e3656"><path d="M 43 0 L 103 0 L 103 47 L 43 47 Z M 43 0 " clip-rule="nonzero"/></clipPath><clipPath id="564b945f8b"><path d="M 104 0 L 137.226562 0 L 137.226562 31 L 104 31 Z M 104 0 " clip-rule="nonzero"/></clipPath><clipPath id="3cb703cbec"><path d="M 22 0 L 54 0 L 54 12 L 22 12 Z M 22 0 " clip-rule="nonzero"/></clipPath><clipPath id="68a502c8c6"><rect x="0" width="138" y="0" height="148"/></clipPath><clipPath id="0ddb5867f9"><path d="M 0.246094 347 L 106 347 L 106 510 L 0.246094 510 Z M 0.246094 347 " clip-rule="nonzero"/></clipPath><mask id="7a9da5baa2"><g filter="url(#db7e4bee00)"><rect x="-59.495996" width="713.951952" fill="#000000" y="-84.224997" height="1010.699964" fill-opacity="0.45"/></g></mask><clipPath id="7aba7908a9"><path d="M 0.246094 127 L 12 127 L 12 162 L 0.246094 162 Z M 0.246094 127 " clip-rule="nonzero"/></clipPath><clipPath id="295a394da9"><path d="M 21 0.210938 L 51 0.210938 L 51 38 L 21 38 Z M 21 0.210938 " clip-rule="nonzero"/></clipPath><clipPath id="ffe8546e61"><path d="M 72 50 L 104.980469 50 L 104.980469 83 L 72 83 Z M 72 50 " clip-rule="nonzero"/></clipPath><clipPath id="896234606c"><path d="M 0.246094 30 L 21 30 L 21 64 L 0.246094 64 Z M 0.246094 30 " clip-rule="nonzero"/></clipPath><clipPath id="882f231c8a"><rect x="0" width="106" y="0" height="163"/></clipPath></defs><g clip-path="url(#f201918912)"><path fill="#ffffff" d="M 0.246094 0 L 595.214844 0 L 595.214844 841.5 L 0.246094 841.5 Z M 0.246094 0 " fill-opacity="1" fill-rule="nonzero"/><path fill="#afcdea" d="M 0.246094 0 L 595.214844 0 L 595.214844 841.5 L 0.246094 841.5 Z M 0.246094 0 " fill-opacity="1" fill-rule="nonzero"/></g><g clip-path="url(#f54db0a0e0)"><g mask="url(#af1641a974)"><g transform="matrix(1, 0, 0, 1, 0.000000000000000056, 604)"><g clip-path="url(#afcd9418d0)"><g clip-path="url(#6367a5c04e)"><path fill="#ffffff" d="M -7.335938 161.246094 C -12.78125 162.875 -17.945312 161.367188 -21.125 156.996094 C -23.585938 153.617188 -24.34375 149.683594 -23.785156 145.59375 C -22.953125 139.433594 -19.933594 134.546875 -14.886719 130.96875 C -11.46875 128.546875 -7.734375 127.316406 -3.5625 128.347656 C 1.683594 129.621094 4.703125 133.316406 6.011719 138.441406 C 8.199219 146.984375 2.597656 156.082031 -4.039062 159.894531 C -5.113281 160.492188 -6.265625 160.96875 -7.335938 161.246094 Z M -7.335938 161.246094 " fill-opacity="1" fill-rule="nonzero"/></g><path fill="#ffffff" d="M 16.105469 90.722656 C 19.324219 91.515625 22.582031 91.316406 25.878906 91.160156 C 28.898438 91 31.917969 90.878906 34.898438 91.753906 C 36.765625 92.3125 38.355469 93.382812 40.0625 94.179688 C 42.804688 95.449219 45.507812 96.839844 48.289062 97.953125 C 51.585938 99.265625 54.882812 98.867188 58.023438 97.4375 C 62.433594 95.449219 64.261719 91.636719 64.855469 87.105469 C 65.414062 82.65625 63.824219 78.761719 61.359375 75.148438 C 60.167969 73.398438 58.9375 71.648438 57.746094 69.902344 C 56.234375 67.796875 56.074219 65.292969 55.957031 62.871094 C 55.757812 58.179688 54.921875 53.652344 52.859375 49.359375 C 51.386719 46.300781 49.203125 44.117188 45.984375 42.882812 C 40.777344 40.898438 36.527344 42.726562 32.433594 45.824219 C 29.535156 48.050781 27.785156 51.070312 26.355469 54.367188 C 24.132812 59.414062 20.238281 62.632812 15.191406 64.617188 C 11.695312 65.96875 8.835938 68.113281 7.207031 71.492188 C 4.066406 77.929688 4.980469 83.808594 11.257812 88.417969 C 12.6875 89.488281 14.238281 90.445312 16.105469 90.722656 Z M 16.105469 90.722656 " fill-opacity="1" fill-rule="nonzero"/><g clip-path="url(#5c90471353)"><path fill="#ffffff" d="M 31.878906 0.925781 C 25.601562 -0.980469 19.601562 4.027344 17.65625 9.070312 C 15.3125 15.191406 15.867188 21.191406 18.171875 27.109375 C 19.800781 31.242188 22.503906 34.539062 26.632812 36.527344 C 30.726562 38.472656 36.128906 37.601562 39.429688 34.460938 C 44.316406 29.773438 45.625 23.890625 44.949219 17.457031 C 44.394531 12.289062 42.289062 7.761719 38.355469 4.183594 C 36.488281 2.476562 34.300781 1.363281 31.878906 0.925781 Z M 31.878906 0.925781 " fill-opacity="1" fill-rule="nonzero"/></g><g clip-path="url(#c29fd93543)"><path fill="#ffffff" d="M 67.082031 66.367188 C 65.492188 71.730469 67.917969 78.324219 73.558594 80.988281 C 78.046875 83.132812 82.617188 82.894531 87.105469 81.066406 C 91.875 79.121094 95.570312 75.863281 97.835938 71.171875 C 99.265625 68.234375 99.742188 65.132812 99.265625 61.835938 C 98.589844 57.070312 95.886719 53.929688 91.675781 52.101562 C 88.816406 50.832031 85.675781 50.710938 82.65625 51.464844 C 76.539062 52.976562 71.929688 56.550781 68.75 61.996094 C 67.957031 63.425781 67.28125 64.894531 67.082031 66.367188 Z M 67.082031 66.367188 " fill-opacity="1" fill-rule="nonzero"/></g><g clip-path="url(#c3ef7bc0c4)"><path fill="#ffffff" d="M -0.464844 63.304688 C 5.058594 64.617188 10.105469 62.828125 13.085938 58.300781 C 15.390625 54.804688 15.90625 50.832031 15.113281 46.777344 C 13.960938 40.660156 10.660156 35.972656 5.417969 32.671875 C 1.882812 30.449219 -1.933594 29.414062 -6.027344 30.648438 C -11.191406 32.195312 -14.011719 36.050781 -15.042969 41.214844 C -16.753906 49.835938 -10.675781 58.65625 -3.839844 62.113281 C -2.765625 62.671875 -1.574219 63.109375 -0.464844 63.304688 Z M -0.464844 63.304688 " fill-opacity="1" fill-rule="nonzero"/></g><path fill="#ffffff" d="M 82.933594 29.851562 C 84.085938 24.886719 83.929688 20.953125 81.824219 17.21875 C 78.445312 11.257812 72.207031 9.828125 66.527344 11.773438 C 60.566406 13.800781 56.632812 18.011719 54.289062 23.773438 C 52.777344 27.507812 52.378906 31.363281 53.53125 35.214844 C 55.679688 42.367188 62.949219 45.945312 70.101562 43.441406 C 77.054688 40.976562 81.148438 35.890625 82.933594 29.851562 Z M 82.933594 29.851562 " fill-opacity="1" fill-rule="nonzero"/></g></g></g></g><g clip-path="url(#333edda2dc)"><g mask="url(#8f9d2f9587)"><g transform="matrix(1, 0, 0, 1, 448, 0)"><g clip-path="url(#569ceabbe4)"><g clip-path="url(#6014201b8a)"><path fill="#ffffff" d="M 115.378906 230.566406 C 112.199219 231.519531 108.941406 231.519531 105.644531 231.519531 C 102.625 231.519531 99.601562 231.558594 96.703125 232.59375 C 94.875 233.226562 93.324219 234.378906 91.65625 235.292969 C 88.996094 236.726562 86.371094 238.234375 83.632812 239.507812 C 80.414062 241.015625 77.113281 240.777344 73.898438 239.546875 C 69.367188 237.796875 67.339844 234.0625 66.546875 229.613281 C 65.75 225.203125 67.140625 221.191406 69.367188 217.453125 C 70.441406 215.628906 71.59375 213.839844 72.703125 212.011719 C 74.09375 209.828125 74.136719 207.324219 74.09375 204.898438 C 74.054688 200.210938 74.613281 195.640625 76.441406 191.269531 C 77.75 188.132812 79.816406 185.828125 82.957031 184.398438 C 88.042969 182.132812 92.410156 183.722656 96.625 186.621094 C 99.644531 188.6875 101.550781 191.628906 103.140625 194.808594 C 105.601562 199.734375 109.695312 202.753906 114.820312 204.421875 C 118.398438 205.613281 121.335938 207.5625 123.164062 210.859375 C 126.660156 217.136719 126.066406 223.015625 120.027344 227.984375 C 118.714844 229.175781 117.203125 230.207031 115.378906 230.566406 Z M 115.378906 230.566406 " fill-opacity="1" fill-rule="nonzero"/></g><path fill="#ffffff" d="M 94.796875 141.765625 C 100.953125 139.5 107.230469 144.1875 109.417969 149.117188 C 112.078125 155.074219 111.839844 161.113281 109.894531 167.152344 C 108.503906 171.40625 105.960938 174.820312 101.949219 177.007812 C 97.933594 179.191406 92.53125 178.597656 89.074219 175.617188 C 83.949219 171.207031 82.320312 165.40625 82.675781 158.929688 C 82.957031 153.722656 84.824219 149.117188 88.558594 145.339844 C 90.265625 143.554688 92.371094 142.320312 94.796875 141.765625 Z M 94.796875 141.765625 " fill-opacity="1" fill-rule="nonzero"/><path fill="#ffffff" d="M 63.167969 208.992188 C 65.074219 214.277344 62.96875 220.953125 57.488281 223.929688 C 53.117188 226.316406 48.546875 226.316406 43.976562 224.765625 C 39.089844 223.097656 35.277344 220.039062 32.734375 215.46875 C 31.144531 212.609375 30.507812 209.546875 30.789062 206.210938 C 31.183594 201.402344 33.726562 198.144531 37.820312 196.078125 C 40.601562 194.6875 43.738281 194.371094 46.800781 194.964844 C 52.996094 196.160156 57.804688 199.496094 61.222656 204.742188 C 62.097656 206.089844 62.890625 207.5625 63.167969 208.992188 Z M 63.167969 208.992188 " fill-opacity="1" fill-rule="nonzero"/><path fill="#ffffff" d="M 130.476562 202.316406 C 125.03125 203.945312 119.867188 202.4375 116.6875 198.066406 C 114.226562 194.6875 113.46875 190.753906 114.027344 186.664062 C 114.859375 180.503906 117.878906 175.617188 122.925781 172.039062 C 126.34375 169.617188 130.078125 168.386719 134.25 169.417969 C 139.496094 170.691406 142.515625 174.386719 143.824219 179.511719 C 146.011719 188.054688 140.410156 197.152344 133.773438 200.964844 C 132.699219 201.5625 131.546875 202.039062 130.476562 202.316406 Z M 130.476562 202.316406 " fill-opacity="1" fill-rule="nonzero"/><path fill="#ffffff" d="M 45.367188 173.390625 C 43.9375 168.503906 43.898438 164.570312 45.804688 160.71875 C 48.867188 154.558594 55.023438 152.808594 60.785156 154.441406 C 66.824219 156.148438 70.996094 160.160156 73.660156 165.761719 C 75.367188 169.417969 75.960938 173.234375 75.007812 177.125 C 73.261719 184.359375 66.1875 188.332031 58.878906 186.226562 C 51.84375 184.199219 47.476562 179.351562 45.367188 173.390625 Z M 45.367188 173.390625 " fill-opacity="1" fill-rule="nonzero"/><g clip-path="url(#377c2780e3)"><path fill="#ffffff" d="M 153.917969 131.792969 C 157.136719 132.585938 160.394531 132.386719 163.691406 132.230469 C 166.710938 132.070312 169.730469 131.949219 172.710938 132.824219 C 174.578125 133.382812 176.167969 134.453125 177.875 135.25 C 180.617188 136.519531 183.320312 137.910156 186.101562 139.023438 C 189.398438 140.335938 192.695312 139.9375 195.835938 138.507812 C 200.246094 136.519531 202.074219 132.707031 202.667969 128.175781 C 203.226562 123.726562 201.636719 119.832031 199.171875 116.21875 C 197.980469 114.46875 196.75 112.722656 195.558594 110.972656 C 194.046875 108.867188 193.886719 106.363281 193.769531 103.941406 C 193.570312 99.25 192.734375 94.722656 190.667969 90.429688 C 189.199219 87.371094 187.015625 85.1875 183.796875 83.953125 C 178.589844 81.96875 174.339844 83.796875 170.246094 86.894531 C 167.347656 89.121094 165.597656 92.140625 164.167969 95.4375 C 161.941406 100.484375 158.050781 103.703125 153.003906 105.6875 C 149.507812 107.039062 146.644531 109.183594 145.015625 112.5625 C 141.878906 119 142.792969 124.878906 149.070312 129.488281 C 150.5 130.558594 152.050781 131.515625 153.917969 131.792969 Z M 153.917969 131.792969 " fill-opacity="1" fill-rule="nonzero"/></g><g clip-path="url(#309d10c291)"><path fill="#ffffff" d="M 137.347656 104.375 C 142.871094 105.6875 147.917969 103.898438 150.898438 99.371094 C 153.203125 95.875 153.71875 91.902344 152.925781 87.847656 C 151.773438 81.730469 148.472656 77.042969 143.230469 73.742188 C 139.691406 71.519531 135.878906 70.484375 131.785156 71.71875 C 126.621094 73.265625 123.800781 77.121094 122.765625 82.285156 C 121.058594 90.90625 127.136719 99.726562 133.972656 103.183594 C 135.042969 103.742188 136.238281 104.179688 137.347656 104.375 Z M 137.347656 104.375 " fill-opacity="1" fill-rule="nonzero"/></g><g clip-path="url(#259655c9e1)"><path fill="#ffffff" d="M 50.972656 48.832031 C 54.230469 48.117188 57.050781 46.527344 59.949219 44.9375 C 62.613281 43.46875 65.234375 42.039062 68.292969 41.519531 C 70.203125 41.203125 72.109375 41.441406 74.015625 41.402344 C 77.035156 41.363281 80.054688 41.402344 83.074219 41.164062 C 86.609375 40.886719 89.390625 39.097656 91.617188 36.433594 C 94.714844 32.699219 94.675781 28.449219 93.207031 24.15625 C 91.738281 19.945312 88.597656 17.125 84.785156 14.941406 C 82.957031 13.867188 81.089844 12.832031 79.222656 11.839844 C 76.957031 10.609375 75.683594 8.464844 74.53125 6.316406 C 72.269531 2.1875 69.566406 -1.507812 65.832031 -4.449219 C 63.167969 -6.554688 60.230469 -7.546875 56.8125 -7.269531 C 51.25 -6.792969 48.230469 -3.257812 45.964844 1.3125 C 44.335938 4.570312 44.097656 8.066406 44.257812 11.640625 C 44.496094 17.164062 42.390625 21.773438 38.734375 25.746094 C 36.191406 28.527344 34.5625 31.667969 34.601562 35.441406 C 34.601562 42.59375 38.019531 47.480469 45.6875 48.871094 C 47.355469 49.1875 49.183594 49.386719 50.972656 48.832031 Z M 50.972656 48.832031 " fill-opacity="1" fill-rule="nonzero"/></g><g clip-path="url(#fcd6f14e28)"><path fill="#ffffff" d="M 86.054688 4.488281 C 86.96875 10.011719 92.054688 14.859375 98.292969 14.78125 C 103.257812 14.742188 107.273438 12.515625 110.488281 8.902344 C 113.90625 5.046875 115.773438 0.515625 115.773438 -4.6875 C 115.773438 -7.945312 114.820312 -10.925781 112.953125 -13.707031 C 110.25 -17.71875 106.476562 -19.308594 101.867188 -19.109375 C 98.730469 -18.992188 95.867188 -17.71875 93.484375 -15.695312 C 88.675781 -11.640625 86.09375 -6.394531 85.65625 -0.117188 C 85.539062 1.46875 85.578125 3.097656 86.054688 4.488281 Z M 86.054688 4.488281 " fill-opacity="1" fill-rule="nonzero"/></g><g clip-path="url(#1afdd02398)"><path fill="#ffffff" d="M 24.03125 31.507812 C 29.554688 30.277344 33.332031 26.421875 34.003906 21.058594 C 34.523438 16.925781 33.25 13.113281 30.746094 9.8125 C 27.011719 4.847656 22.007812 2.066406 15.847656 1.390625 C 11.714844 0.953125 7.820312 1.707031 4.683594 4.609375 C 0.75 8.265625 -0.125 12.992188 1.226562 18.078125 C 3.492188 26.582031 12.828125 31.824219 20.496094 31.90625 C 21.6875 31.945312 22.921875 31.785156 24.03125 31.507812 Z M 24.03125 31.507812 " fill-opacity="1" fill-rule="nonzero"/></g></g></g></g></g><g clip-path="url(#779f17c2bb)"><g mask="url(#d6e6345c9a)"><g transform="matrix(1, 0, 0, 1, 508, 531)"><g clip-path="url(#313b0e72db)"><g clip-path="url(#46807e9feb)"><path fill="#ffffff" d="M 115.320312 279.457031 C 112.144531 280.410156 108.882812 280.410156 105.585938 280.410156 C 102.566406 280.410156 99.546875 280.449219 96.648438 281.484375 C 94.820312 282.121094 93.269531 283.273438 91.601562 284.1875 C 88.9375 285.617188 86.316406 287.125 83.574219 288.398438 C 80.355469 289.90625 77.058594 289.667969 73.839844 288.4375 C 69.3125 286.6875 67.285156 282.953125 66.492188 278.503906 C 65.695312 274.09375 67.085938 270.082031 69.3125 266.347656 C 70.382812 264.519531 71.535156 262.730469 72.648438 260.902344 C 74.039062 258.71875 74.078125 256.214844 74.039062 253.789062 C 74 249.101562 74.554688 244.53125 76.382812 240.164062 C 77.695312 237.023438 79.761719 234.71875 82.898438 233.289062 C 87.984375 231.023438 92.355469 232.613281 96.566406 235.511719 C 99.585938 237.578125 101.496094 240.519531 103.082031 243.699219 C 105.546875 248.625 109.640625 251.644531 114.765625 253.3125 C 118.339844 254.503906 121.28125 256.453125 123.109375 259.75 C 126.605469 266.027344 126.007812 271.910156 119.96875 276.875 C 118.660156 278.066406 117.148438 279.101562 115.320312 279.457031 Z M 115.320312 279.457031 " fill-opacity="1" fill-rule="nonzero"/></g><g clip-path="url(#4cdef88699)"><path fill="#ffffff" d="M 94.738281 190.65625 C 100.898438 188.390625 107.175781 193.078125 109.363281 198.007812 C 112.023438 203.964844 111.785156 210.003906 109.839844 216.042969 C 108.449219 220.296875 105.90625 223.714844 101.890625 225.898438 C 97.878906 228.082031 92.476562 227.488281 89.019531 224.507812 C 83.894531 220.097656 82.265625 214.296875 82.621094 207.820312 C 82.898438 202.617188 84.765625 198.007812 88.503906 194.230469 C 90.210938 192.445312 92.316406 191.210938 94.738281 190.65625 Z M 94.738281 190.65625 " fill-opacity="1" fill-rule="nonzero"/></g><path fill="#ffffff" d="M 63.113281 257.882812 C 65.019531 263.167969 62.914062 269.84375 57.429688 272.820312 C 53.0625 275.207031 48.492188 275.207031 43.921875 273.65625 C 39.035156 271.988281 35.222656 268.929688 32.679688 264.359375 C 31.089844 261.5 30.453125 258.4375 30.730469 255.101562 C 31.128906 250.292969 33.671875 247.035156 37.765625 244.96875 C 40.546875 243.578125 43.683594 243.261719 46.742188 243.855469 C 52.941406 245.050781 57.75 248.386719 61.167969 253.632812 C 62.039062 254.984375 62.835938 256.453125 63.113281 257.882812 Z M 63.113281 257.882812 " fill-opacity="1" fill-rule="nonzero"/><path fill="#ffffff" d="M 45.3125 222.28125 C 43.882812 217.394531 43.84375 213.460938 45.75 209.609375 C 48.808594 203.449219 54.96875 201.703125 60.730469 203.332031 C 66.769531 205.039062 70.941406 209.050781 73.601562 214.652344 C 75.3125 218.308594 75.90625 222.125 74.953125 226.019531 C 73.207031 233.25 66.132812 237.222656 58.820312 235.117188 C 51.789062 233.089844 47.417969 228.242188 45.3125 222.28125 Z M 45.3125 222.28125 " fill-opacity="1" fill-rule="nonzero"/><g clip-path="url(#53276fe031)"><path fill="#ffffff" d="M 50.914062 97.722656 C 54.171875 97.007812 56.996094 95.417969 59.894531 93.828125 C 62.558594 92.359375 65.179688 90.929688 68.238281 90.410156 C 70.144531 90.09375 72.054688 90.332031 73.960938 90.292969 C 76.980469 90.253906 80 90.292969 83.019531 90.054688 C 86.554688 89.777344 89.335938 87.988281 91.5625 85.324219 C 94.660156 81.589844 94.621094 77.339844 93.152344 73.046875 C 91.679688 68.835938 88.542969 66.015625 84.726562 63.832031 C 82.898438 62.757812 81.03125 61.726562 79.164062 60.730469 C 76.898438 59.5 75.628906 57.355469 74.476562 55.207031 C 72.210938 51.078125 69.511719 47.382812 65.773438 44.441406 C 63.113281 42.335938 60.171875 41.34375 56.757812 41.621094 C 51.195312 42.097656 48.175781 45.632812 45.910156 50.203125 C 44.28125 53.460938 44.042969 56.957031 44.199219 60.53125 C 44.4375 66.054688 42.332031 70.664062 38.679688 74.636719 C 36.136719 77.417969 34.507812 80.558594 34.546875 84.332031 C 34.546875 91.484375 37.960938 96.371094 45.632812 97.761719 C 47.300781 98.078125 49.128906 98.277344 50.914062 97.722656 Z M 50.914062 97.722656 " fill-opacity="1" fill-rule="nonzero"/></g><path fill="#ffffff" d="M 25.566406 10.113281 C 19.089844 11.144531 15.871094 18.296875 16.386719 23.703125 C 16.984375 30.21875 20.121094 35.382812 24.773438 39.671875 C 28.03125 42.691406 31.964844 44.441406 36.53125 44.402344 C 41.101562 44.363281 45.550781 41.183594 47.101562 36.933594 C 49.40625 30.574219 48.015625 24.695312 44.558594 19.210938 C 41.777344 14.800781 37.882812 11.664062 32.796875 10.191406 C 30.414062 9.515625 27.949219 9.4375 25.566406 10.113281 Z M 25.566406 10.113281 " fill-opacity="1" fill-rule="nonzero"/><g clip-path="url(#71b9dc8a5c)"><path fill="#ffffff" d="M 86 53.382812 C 86.914062 58.902344 92 63.75 98.238281 63.671875 C 103.203125 63.632812 107.214844 61.40625 110.433594 57.792969 C 113.851562 53.9375 115.71875 49.40625 115.71875 44.203125 C 115.71875 40.945312 114.765625 37.964844 112.898438 35.183594 C 110.195312 31.171875 106.421875 29.582031 101.8125 29.78125 C 98.671875 29.898438 95.8125 31.171875 93.429688 33.199219 C 88.621094 37.25 86.039062 42.496094 85.601562 48.773438 C 85.480469 50.363281 85.523438 51.992188 86 53.382812 Z M 86 53.382812 " fill-opacity="1" fill-rule="nonzero"/></g><g clip-path="url(#64cd93f8fc)"><path fill="#ffffff" d="M 23.976562 80.398438 C 29.5 79.167969 33.273438 75.3125 33.949219 69.949219 C 34.464844 65.816406 33.195312 62.003906 30.691406 58.707031 C 26.957031 53.738281 21.949219 50.957031 15.792969 50.28125 C 11.660156 49.84375 7.765625 50.601562 4.628906 53.5 C 0.695312 57.15625 -0.179688 61.882812 1.171875 66.96875 C 3.433594 75.472656 12.773438 80.71875 20.441406 80.796875 C 21.632812 80.835938 22.863281 80.675781 23.976562 80.398438 Z M 23.976562 80.398438 " fill-opacity="1" fill-rule="nonzero"/></g><g clip-path="url(#6e2893c9a2)"><path fill="#ffffff" d="M 84.171875 13.648438 C 83.019531 8.683594 81.152344 5.226562 77.617188 2.800781 C 71.933594 -1.089844 65.734375 0.378906 61.484375 4.628906 C 56.996094 9.078125 55.285156 14.601562 55.722656 20.800781 C 56 24.8125 57.351562 28.46875 60.09375 31.410156 C 65.140625 36.890625 73.285156 36.890625 78.609375 31.488281 C 83.773438 26.246094 85.203125 19.847656 84.171875 13.648438 Z M 84.171875 13.648438 " fill-opacity="1" fill-rule="nonzero"/></g></g></g></g></g><g clip-path="url(#1c2a268706)"><g mask="url(#8bc3858270)"><g transform="matrix(1, 0, 0, 1, 0.000000000000000056, 0)"><g clip-path="url(#68a502c8c6)"><g clip-path="url(#05e58207fb)"><path fill="#ffffff" d="M 15.296875 137.539062 C 12.117188 138.492188 8.859375 138.492188 5.5625 138.492188 C 2.542969 138.492188 -0.476562 138.53125 -3.378906 139.566406 C -5.207031 140.203125 -6.753906 141.355469 -8.421875 142.269531 C -11.085938 143.699219 -13.707031 145.207031 -16.449219 146.480469 C -19.667969 147.988281 -22.964844 147.75 -26.183594 146.519531 C -30.714844 144.769531 -32.738281 141.035156 -33.535156 136.585938 C -34.328125 132.175781 -32.9375 128.164062 -30.714844 124.429688 C -29.640625 122.601562 -28.488281 120.8125 -27.375 118.984375 C -25.984375 116.800781 -25.945312 114.296875 -25.984375 111.871094 C -26.023438 107.183594 -25.46875 102.613281 -23.640625 98.246094 C -22.328125 95.105469 -20.265625 92.800781 -17.125 91.371094 C -12.039062 89.105469 -7.667969 90.695312 -3.457031 93.59375 C -0.4375 95.660156 1.46875 98.601562 3.058594 101.78125 C 5.523438 106.707031 9.613281 109.726562 14.742188 111.394531 C 18.316406 112.585938 21.257812 114.535156 23.085938 117.832031 C 26.582031 124.109375 25.984375 129.992188 19.945312 134.957031 C 18.632812 136.148438 17.125 137.183594 15.296875 137.539062 Z M 15.296875 137.539062 " fill-opacity="1" fill-rule="nonzero"/></g><g clip-path="url(#fbb96831f4)"><path fill="#ffffff" d="M -5.285156 48.738281 C 0.875 46.472656 7.152344 51.160156 9.335938 56.089844 C 12 62.046875 11.761719 68.085938 9.8125 74.125 C 8.421875 78.378906 5.878906 81.796875 1.867188 83.980469 C -2.144531 86.164062 -7.550781 85.570312 -11.007812 82.589844 C -16.132812 78.179688 -17.761719 72.378906 -17.402344 65.902344 C -17.125 60.699219 -15.257812 56.089844 -11.523438 52.3125 C -9.8125 50.527344 -7.707031 49.292969 -5.285156 48.738281 Z M -5.285156 48.738281 " fill-opacity="1" fill-rule="nonzero"/></g><path fill="#ffffff" d="M 30.394531 109.289062 C 24.953125 110.917969 19.785156 109.410156 16.609375 105.039062 C 14.144531 101.660156 13.390625 97.726562 13.945312 93.636719 C 14.78125 87.476562 17.800781 82.589844 22.847656 79.015625 C 26.261719 76.589844 29.996094 75.359375 34.167969 76.390625 C 39.414062 77.664062 42.433594 81.359375 43.746094 86.484375 C 45.929688 95.027344 40.328125 104.125 33.691406 107.9375 C 32.621094 108.535156 31.46875 109.011719 30.394531 109.289062 Z M 30.394531 109.289062 " fill-opacity="1" fill-rule="nonzero"/><g clip-path="url(#673d4e3656)"><path fill="#ffffff" d="M 53.835938 38.765625 C 57.054688 39.558594 60.3125 39.359375 63.609375 39.203125 C 66.628906 39.042969 69.648438 38.925781 72.628906 39.796875 C 74.496094 40.355469 76.085938 41.425781 77.796875 42.222656 C 80.535156 43.492188 83.238281 44.882812 86.019531 45.996094 C 89.316406 47.308594 92.617188 46.910156 95.753906 45.480469 C 100.164062 43.492188 101.992188 39.679688 102.589844 35.148438 C 103.144531 30.699219 101.554688 26.804688 99.09375 23.191406 C 97.898438 21.441406 96.667969 19.695312 95.476562 17.945312 C 93.964844 15.839844 93.808594 13.335938 93.6875 10.914062 C 93.488281 6.222656 92.65625 1.695312 90.589844 -2.597656 C 89.117188 -5.65625 86.933594 -7.839844 83.714844 -9.074219 C 78.511719 -11.058594 74.257812 -9.230469 70.167969 -6.132812 C 67.265625 -3.90625 65.519531 -0.886719 64.085938 2.410156 C 61.863281 7.457031 57.96875 10.675781 52.921875 12.660156 C 49.425781 14.011719 46.566406 16.15625 44.9375 19.535156 C 41.796875 25.972656 42.710938 31.851562 48.988281 36.460938 C 50.417969 37.535156 51.96875 38.488281 53.835938 38.765625 Z M 53.835938 38.765625 " fill-opacity="1" fill-rule="nonzero"/></g><g clip-path="url(#564b945f8b)"><path fill="#ffffff" d="M 104.8125 14.410156 C 103.222656 19.773438 105.648438 26.367188 111.289062 29.03125 C 115.78125 31.175781 120.347656 30.9375 124.839844 29.109375 C 129.605469 27.164062 133.300781 23.90625 135.566406 19.21875 C 136.996094 16.277344 137.472656 13.175781 136.996094 9.878906 C 136.320312 5.113281 133.617188 1.972656 129.40625 0.144531 C 126.546875 -1.125 123.40625 -1.246094 120.386719 -0.488281 C 114.269531 1.019531 109.660156 4.59375 106.480469 10.039062 C 105.6875 11.46875 105.011719 12.9375 104.8125 14.410156 Z M 104.8125 14.410156 " fill-opacity="1" fill-rule="nonzero"/></g><g clip-path="url(#3cb703cbec)"><path fill="#ffffff" d="M 37.269531 11.351562 C 42.792969 12.660156 47.835938 10.875 50.816406 6.34375 C 53.121094 2.847656 53.636719 -1.125 52.84375 -5.179688 C 51.691406 -11.296875 48.394531 -15.984375 43.148438 -19.285156 C 39.613281 -21.507812 35.796875 -22.542969 31.707031 -21.308594 C 26.539062 -19.761719 23.71875 -15.90625 22.6875 -10.742188 C 20.976562 -2.121094 27.058594 6.703125 33.890625 10.15625 C 34.964844 10.714844 36.15625 11.152344 37.269531 11.351562 Z M 37.269531 11.351562 " fill-opacity="1" fill-rule="nonzero"/></g></g></g></g></g><g clip-path="url(#0ddb5867f9)"><g mask="url(#7a9da5baa2)"><g transform="matrix(1, 0, 0, 1, 0.000000000000000056, 347)"><g clip-path="url(#882f231c8a)"><g clip-path="url(#7aba7908a9)"><path fill="#ffffff" d="M -1.851562 161.164062 C -7.296875 162.792969 -12.460938 161.28125 -15.640625 156.910156 C -18.101562 153.535156 -18.859375 149.601562 -18.300781 145.507812 C -17.46875 139.347656 -14.445312 134.460938 -9.402344 130.886719 C -5.984375 128.464844 -2.25 127.230469 1.921875 128.265625 C 7.167969 129.535156 10.1875 133.230469 11.496094 138.355469 C 13.683594 146.898438 8.082031 155.996094 1.445312 159.8125 C 0.371094 160.40625 -0.78125 160.882812 -1.851562 161.164062 Z M -1.851562 161.164062 " fill-opacity="1" fill-rule="nonzero"/></g><path fill="#ffffff" d="M 21.589844 90.636719 C 24.808594 91.433594 28.066406 91.234375 31.363281 91.074219 C 34.382812 90.914062 37.402344 90.796875 40.382812 91.671875 C 42.25 92.226562 43.839844 93.300781 45.546875 94.09375 C 48.289062 95.367188 50.992188 96.757812 53.773438 97.867188 C 57.070312 99.179688 60.367188 98.78125 63.507812 97.351562 C 67.917969 95.367188 69.746094 91.550781 70.339844 87.023438 C 70.898438 82.570312 69.308594 78.679688 66.84375 75.0625 C 65.652344 73.316406 64.421875 71.566406 63.230469 69.816406 C 61.71875 67.710938 61.558594 65.210938 61.441406 62.785156 C 61.242188 58.097656 60.410156 53.566406 58.34375 49.277344 C 56.871094 46.21875 54.6875 44.03125 51.46875 42.800781 C 46.261719 40.8125 42.011719 42.640625 37.917969 45.742188 C 35.019531 47.964844 33.269531 50.984375 31.839844 54.28125 C 29.617188 59.328125 25.722656 62.546875 20.675781 64.535156 C 17.179688 65.882812 14.320312 68.03125 12.691406 71.40625 C 9.550781 77.84375 10.464844 83.722656 16.742188 88.332031 C 18.171875 89.40625 19.722656 90.359375 21.589844 90.636719 Z M 21.589844 90.636719 " fill-opacity="1" fill-rule="nonzero"/><g clip-path="url(#295a394da9)"><path fill="#ffffff" d="M 37.363281 0.84375 C 31.085938 -1.0625 25.085938 3.941406 23.140625 8.988281 C 20.796875 15.105469 21.351562 21.105469 23.65625 27.027344 C 25.285156 31.160156 27.988281 34.457031 32.117188 36.441406 C 36.210938 38.390625 41.613281 37.515625 44.914062 34.378906 C 49.800781 29.6875 51.109375 23.808594 50.433594 17.371094 C 49.878906 12.207031 47.773438 7.675781 43.839844 4.101562 C 41.972656 2.394531 39.789062 1.28125 37.363281 0.84375 Z M 37.363281 0.84375 " fill-opacity="1" fill-rule="nonzero"/></g><g clip-path="url(#ffe8546e61)"><path fill="#ffffff" d="M 72.566406 66.28125 C 70.976562 71.644531 73.402344 78.242188 79.042969 80.902344 C 83.53125 83.050781 88.101562 82.8125 92.589844 80.984375 C 97.359375 79.035156 101.054688 75.777344 103.320312 71.089844 C 104.75 68.148438 105.226562 65.050781 104.75 61.753906 C 104.074219 56.984375 101.371094 53.847656 97.160156 52.019531 C 94.300781 50.746094 91.160156 50.628906 88.140625 51.382812 C 82.023438 52.890625 77.414062 56.46875 74.234375 61.910156 C 73.441406 63.34375 72.765625 64.8125 72.566406 66.28125 Z M 72.566406 66.28125 " fill-opacity="1" fill-rule="nonzero"/></g><g clip-path="url(#896234606c)"><path fill="#ffffff" d="M 5.023438 63.222656 C 10.542969 64.535156 15.589844 62.746094 18.570312 58.214844 C 20.875 54.71875 21.390625 50.746094 20.597656 46.695312 C 19.445312 40.574219 16.148438 35.886719 10.902344 32.589844 C 7.367188 30.363281 3.550781 29.332031 -0.539062 30.5625 C -5.707031 32.113281 -8.527344 35.964844 -9.558594 41.132812 C -11.269531 49.753906 -5.191406 58.574219 1.644531 62.03125 C 2.71875 62.585938 3.910156 63.023438 5.023438 63.222656 Z M 5.023438 63.222656 " fill-opacity="1" fill-rule="nonzero"/></g><path fill="#ffffff" d="M 88.417969 29.769531 C 89.570312 24.800781 89.414062 20.867188 87.308594 17.132812 C 83.929688 11.171875 77.691406 9.742188 72.011719 11.691406 C 66.050781 13.714844 62.117188 17.929688 59.773438 23.6875 C 58.261719 27.425781 57.867188 31.277344 59.019531 35.132812 C 61.164062 42.285156 68.433594 45.859375 75.585938 43.355469 C 82.539062 40.894531 86.632812 35.808594 88.417969 29.769531 Z M 88.417969 29.769531 " fill-opacity="1" fill-rule="nonzero"/></g></g></g></g></svg>